<svg width="155" height="155" viewBox="0 0 155 155" fill="none" xmlns="http://www.w3.org/2000/svg">
<rect width="155" height="155" rx="50" fill="#FF6900"/>
<path d="M28 65.5C28.0001 59.936 29.688 54.5029 32.8407 49.9183C35.9934 45.3337 40.4626 41.8132 45.658 39.822C50.8535 37.8307 56.5308 37.4622 61.9401 38.7652C67.3493 40.0682 72.2361 42.9814 75.955 47.12C76.2169 47.4 76.5336 47.6233 76.8854 47.776C77.2372 47.9286 77.6165 48.0074 78 48.0074C78.3835 48.0074 78.7629 47.9286 79.1146 47.776C79.4664 47.6233 79.7831 47.4 80.045 47.12C83.7522 42.9545 88.6401 40.0168 94.0582 38.698C99.4762 37.3791 105.167 37.7417 110.374 39.7374C115.581 41.7331 120.057 45.2672 123.206 49.8695C126.354 54.4717 128.027 59.9238 128 65.5C128 76.95 120.5 85.5 113 93L85.54 119.565C84.6083 120.635 83.4596 121.495 82.1702 122.086C80.8808 122.678 79.4802 122.989 78.0615 122.998C76.6427 123.007 75.2382 122.714 73.9414 122.139C72.6446 121.563 71.4851 120.718 70.54 119.66L43 93C35.5 85.5 28 77 28 65.5Z" stroke="white" stroke-width="10" stroke-linecap="round" stroke-linejoin="round"/>
<path d="M34.1001 83H65.5001L68.0001 78L78.0001 100.5L88.0001 65.5L95.5001 83H121.85" stroke="white" stroke-width="10" stroke-linecap="round" stroke-linejoin="round"/>
</svg>
